<svg width="355" height="261" viewBox="0 0 355 261" fill="none" xmlns="http://www.w3.org/2000/svg">
<g clip-path="url(#clip0_340_218)">
<path d="M259.664 28.7443L350.297 119.151C356.571 125.409 356.571 135.591 350.297 141.854L259.664 232.26C256.876 235.041 252.395 235.041 249.602 232.26L152.648 135.549C149.86 132.768 149.86 128.298 152.648 125.512L249.602 28.8008C252.39 26.02 256.871 26.02 259.664 28.8008V28.7491V28.7443Z" fill="#62AA8B"/>
<path d="M233.036 261H142.351C130.464 261 119.049 256.295 110.652 247.919L4.99072 142.522C-1.66032 135.887 -1.66032 125.112 4.99072 118.478L110.652 13.0806C119.044 4.70525 130.464 0 142.351 0H233.036C237.234 0 239.31 5.03461 236.385 7.99892L118.601 125.489C115.818 128.265 115.818 132.735 118.601 135.511L236.385 253.001C239.357 255.965 237.234 261 233.036 261ZM146.927 230.416H162.139C165.205 230.416 166.715 226.746 164.545 224.581L75.2039 135.464C72.4208 132.688 72.4208 128.218 75.2039 125.442L164.545 36.3245C166.715 34.1601 165.158 30.49 162.139 30.49H146.927C140.276 30.49 133.86 33.1249 129.143 37.8302L43.0573 123.701C39.3308 127.418 39.3308 133.441 43.0573 137.158L129.143 223.029C133.86 227.734 140.228 230.369 146.927 230.369V230.416Z" fill="#62AA8B"/>
</g>
<defs>
<clipPath id="clip0_340_218">
<rect width="355" height="261" fill="white"/>
</clipPath>
</defs>
</svg>
