<svg xmlns="http://www.w3.org/2000/svg" viewBox="0 0 382 109.22"><title>Logo_dana_blue</title><path fill="#008ceb" fill-rule="evenodd" d="M151,82.84c7.26.52,15.72-5.12,18.7-8.34,10.36-11.21,10.61-27.42.18-39.16-3.88-4.37-13-9.2-18.77-8.52H130.22V82.77l20.83.07ZM142,70.72V38.87a75,75,0,0,1,9.82,0,15.22,15.22,0,0,1,7.13,2.76c12,8.2,7,27.75-7.33,29.06A71.77,71.77,0,0,1,142,70.72Z"/><path fill="#008ceb" d="M334.39,82.94H346.3V70.88h23.63l.07,12h11.91V63c0-6,.5-13.48-1-18.91a23.62,23.62,0,0,0-45.49-.25c-1.6,5.36-1.06,13.05-1.06,19,0,6.72-.07,13.48,0,20.2Zm11.92-24.19c-.07-5-.6-10.35,1.75-14.2a11.61,11.61,0,0,1,10.15-5.77,11.79,11.79,0,0,1,10.08,5.82c2.32,4,1.77,9,1.71,14.16Z"/><circle fill="#008ceb" cx="54.61" cy="54.61" r="54.61"/><path fill="#fefefe" d="M86.43,54.84V70.21c0,1-.43,1.21-1.27.72a28.08,28.08,0,0,0-3.5-1.78,23.73,23.73,0,0,0-11.49-1.53,55.06,55.06,0,0,0-12.44,3.12c-4,1.35-7.92,2.81-12,3.94a33.41,33.41,0,0,1-10.42,1.37,22.12,22.12,0,0,1-11-3.43A2.71,2.71,0,0,1,23,70.2Q23,55.1,23,40c0-.49,0-1.07.44-1.32s.89.16,1.27.41a21,21,0,0,0,12.15,3.6A32.4,32.4,0,0,0,45.94,41c4.16-1.29,8.18-3,12.27-4.45a74.14,74.14,0,0,1,9.77-3,21.21,21.21,0,0,1,16.73,3.09,3.67,3.67,0,0,1,1.75,3.27c0,5,0,10,0,15Z"/></svg>
